<svg height="512pt" viewBox="-6 0 512 512.00019" width="512pt" xmlns="http://www.w3.org/2000/svg"><path d="m397.84375 387.703125 21.269531 97.742187c2.972657 13.652344-7.425781 26.554688-21.394531 26.554688-10.832031 0-19.988281-7.921875-21.640625-18.625-3.816406-24.679688-27.925781-49.113281-82.566406-80.554688-32.648438-18.789062-44.671875-42.140624-48.335938-61.394531-68.9375 15.542969-109.402343-5.019531-133.605469-60.328125-15.453124 6.117188-39.128906-3.222656-43.902343-15.898437-1.855469.984375-3.816407 1.785156-5.890625 2.363281-19.105469 5.316406-39.90625-9.472656-46.460938-33.03125-2.46875-8.875-2.5625-17.726562-.703125-25.601562-5.660156-5.78125-10.152343-13.40625-12.621093-22.28125-6.550782-23.535157 3.59375-46.914063 22.65625-52.261719-3.242188-8.453125-4.121094-18.484375-1.929688-28.734375 4.46875-20.882813 20.191406-35.746094 37.019531-36.410156.8125-9.230469 4.613281-18.863282 11.40625-27.226563 12.230469-15.054687 30.464844-21.460937 45.164063-17.234375 5.113281-8.441406 13.546875-15.742188 24.304687-20.078125 15.792969-6.359375 32.40625-4.648437 43.550781 3.183594 6.414063-7.84375 16.167969-13.972657 27.851563-16.578125 19.023437-4.242188 37.386719 2.132812 46.246094 14.691406 8.558593-7.730469 21.28125-12.28125 35.226562-11.503906 17.925781.996094 32.863281 10.511718 39.109375 23.332031 10.007813-2.6875 21.816406-1.828125 33.023438 3.214844 14.226562 6.40625 24.035156 18.003906 27.167968 30.257812 7.511719-.785156 15.152344 2.078125 23.472657 3.941407 8.84375 1.980468 22.1875 18.03125 22.1875 18.03125 7.527343 10.636718 10.199219 23.160156 7.046875 33.878906 10.179687 2.441406 20.238281 8.957031 27.675781 18.929687 9.445313 12.664063 12.347656 27.785157 8.9375 40.101563 13.308594 8.457031 20.300781 27.238281 16.113281 46.8125-2.414062 11.28125-8.117187 20.800781-15.5 27.28125 3.613282 10.527344 3.089844 23.445312-2.40625 35.652344-10.039062 22.296874-32.832031 33.773437-50.914062 25.636718l-35.460938 13.457032zm0 0" fill="#f084ad"/><path d="m482.109375 176.183594c3.410156-12.316406.507813-27.4375-8.9375-40.101563-7.4375-9.976562-17.496094-16.492187-27.675781-18.933593 3.148437-10.71875.480468-23.238282-7.050782-33.875 0 0-13.339843-16.050782-22.183593-18.03125-8.324219-1.863282-15.960938-4.730469-23.472657-3.941407-3.132812-12.253906-12.941406-23.851562-27.167968-30.257812-11.207032-5.042969-23.015625-5.902344-33.023438-3.21875-6.246094-12.820313-21.1875-22.332031-39.109375-23.332031-13.945312-.773438-26.667969 3.773437-35.226562 11.503906-8.863281-12.554688-27.226563-18.929688-46.25-14.6875-11.679688 2.605468-21.433594 8.734375-27.851563 16.574218-11.140625-7.828124-27.753906-9.539062-43.546875-3.179687-10.757812 4.335937-19.195312 11.636719-24.304687 20.078125-14.703125-4.226562-32.9375 2.179688-45.164063 17.230469-2.914062 3.585937-5.269531 7.40625-7.085937 11.328125 2.234375-.660156 4.476562-1.128906 6.707031-1.402344 8.835937-1.074219 17.054687-4.855469 23.878906-10.570312 4.097657-3.425782 8.898438-6.339844 14.285157-8.511719 9.332031-3.757813 18.945312-4.699219 27.554687-3.222657 10.101563 1.730469 20.574219.207032 29.535156-4.769531 4.308594-2.390625 9.117188-4.242187 14.3125-5.402343 11.6875-2.605469 23.128907-1.203126 32.265625 3.175781 9.703125 4.652343 20.777344 5.179687 31.085938 2.09375 5.59375-1.675781 11.730468-2.441407 18.121094-2.082031 11.777343.652343 22.269531 4.988281 29.851562 11.519531 7.105469 6.125 15.976562 9.671875 25.320312 10.519531 5.605469.507812 11.355469 1.984375 16.960938 4.507812 8.453125 3.804688 15.347656 9.445313 20.207031 15.964844 6.167969 8.277344 14.882813 14.285156 24.875 16.867188 1.824219.46875 3.671875.941406 5.558594 1.367187 8.84375 1.976563 22.183594 18.03125 22.183594 18.03125 3.765625 5.316407 6.316406 11.105469 7.53125 16.90625 2.097656 10.011719 8.035156 18.832031 16.246093 24.929688 4.007813 2.972656 7.722657 6.648437 10.949219 10.972656 6.253907 8.382813 9.636719 17.847656 10.222657 26.859375.527343 8.171875 3.667968 15.886719 8.335937 22.613281 6.734375 9.710938 9.5 23.371094 6.488281 37.4375-1.742187 8.148438-5.199218 15.378907-9.769531 21.207031-3.140625 4.011719-4.523437 9.070313-3.84375 14.121094 1.144531 8.492188-.078125 17.875-3.992187 26.902344 12.664062-2.800781 24.785156-12.785156 31.382812-27.445312 5.496094-12.210938 6.019531-25.125 2.410156-35.652344 7.378906-6.480469 13.082032-16 15.496094-27.285156 4.191406-19.570313-2.800781-38.355469-16.109375-46.808594zm0 0" fill="#c96f91"/><path d="m29.847656 98.164062c-1.867187 2.910157-3.472656 6.09375-4.769531 9.5.988281-.136718 1.976563-.230468 2.976563-.269531.265624-3.050781.871093-6.148437 1.792968-9.230469zm0 0" fill="#c96f91"/><path d="m397.84375 387.703125 21.269531 97.742187c2.972657 13.652344-7.425781 26.554688-21.394531 26.554688-10.832031 0-19.988281-7.921875-21.640625-18.625-3.816406-24.679688-27.925781-49.113281-82.566406-80.554688-68.269531-39.285156-46.371094-98.539062-46.371094-98.539062s14.625 1.707031 24.3125 16.527344c9.683594 14.816406 107.035156 8.121094 107.035156 8.121094zm0 0" fill="#ffdeeb"/><path d="m419.113281 485.445312-21.269531-97.742187-19.355469-48.773437s-9.28125.636718-22.390625 1.085937l18.566406 46.78125 21.269532 97.742187c2.121094 9.738282-2.566406 19.09375-10.5 23.660157 3.519531 2.398437 7.75 3.800781 12.285156 3.800781 13.96875 0 24.367188-12.902344 21.394531-26.554688zm0 0" fill="#e6c8d4"/><path d="m330.015625 306.636719c-17.59375 0-30.476563 16.574219-26.132813 33.621093l2.765626 14.867188c4.71875 18.53125 21.40625 31.503906 40.53125 31.503906h48.988281c19.121093 0 35.8125-12.96875 40.527343-31.503906l2.769532-14.867188c4.339844-17.046874-8.539063-33.621093-26.132813-33.621093-14.394531 0-64.472656 0-83.316406 0zm0 0" fill="#ed2772"/><path d="m417.328125 306.941406c.511719 3.417969.371094 7.011719-.550781 10.628906l-2.765625 14.867188c-4.71875 18.53125-21.40625 31.503906-40.53125 31.503906h-48.988281c-5.609376 0-11.007813-1.125-15.960938-3.171875 6.378906 15.46875 21.535156 25.859375 38.652344 25.859375h48.984375c19.125 0 35.8125-12.96875 40.53125-31.503906l2.769531-14.867188c4-15.726562-6.65625-31.039062-22.140625-33.316406zm0 0" fill="#c7215f"/><g fill="#c91d60"><path d="m381.503906 130.75c3.871094-1.796875 5.550782-6.394531 3.75-10.261719-9.777344-21.039062-34.851562-30.203125-55.886718-20.425781-.285157.132812-.5625.28125-.84375.417969-15.882813-25.167969-48.445313-35.273438-76.132813-22.40625-3.867187 1.800781-5.546875 6.394531-3.75 10.265625 1.796875 3.867187 6.394531 5.546875 10.261719 3.75 20.949218-9.734375 45.664062-1.78125 57.210937 17.675781-11.140625 12.167969-14.542969 30.320313-7.167969 46.1875 1.308594 2.816406 4.097657 4.472656 7.011719 4.472656 1.089844 0 2.199219-.234375 3.25-.722656 3.871094-1.800781 5.550781-6.394531 3.75-10.265625-6.1875-13.3125-.386719-29.175781 12.921875-35.359375 13.3125-6.1875 29.175782-.390625 35.363282 12.921875 1.796874 3.871094 6.394531 5.546875 10.261718 3.75zm0 0"/><path d="m148.203125 157.804688c7.988281-2.964844 16.65625-2.640626 24.402344.910156 3.878906 1.78125 8.464843.078125 10.246093-3.800782 1.777344-3.878906.074219-8.464843-3.804687-10.246093-11.496094-5.273438-24.363281-5.753907-36.21875-1.351563-11.183594 4.148438-20.207031 12.171875-25.621094 22.714844-13.59375-4.066406-28.664062-3.386719-42.511719 3.046875-3.867187 1.800781-5.546874 6.394531-3.75 10.265625 1.796876 3.867188 6.394532 5.542969 10.265626 3.75 22.332031-10.378906 48.9375-.652344 59.3125 21.675781 1.308593 2.816407 4.097656 4.472657 7.011718 4.472657 1.089844 0 2.199219-.234376 3.25-.722657 3.871094-1.800781 5.550782-6.394531 3.75-10.265625-5.183594-11.152344-13.378906-19.964844-23.171875-25.929687 3.6875-6.710938 9.585938-11.828125 16.839844-14.519531zm0 0"/><path d="m342.152344 214.667969c-12.484375-2.054688-25.015625.882812-35.292969 8.257812-3.46875 2.488281-4.261719 7.316407-1.773437 10.78125 2.488281 3.464844 7.316406 4.257813 10.78125 1.769531 6.925781-4.96875 15.371093-6.941406 23.78125-5.5625 8.40625 1.382813 15.777343 5.953126 20.746093 12.878907 1.507813 2.101562 3.878907 3.222656 6.28125 3.222656 1.5625-.003906 3.136719-.472656 4.5-1.453125 3.46875-2.488281 4.261719-7.3125 1.773438-10.78125-7.378907-10.273438-18.316407-17.0625-30.796875-19.113281zm0 0"/><path d="m247.410156 303.070312c-12.433594 2.339844-23.207031 9.386719-30.34375 19.832032-2.40625 3.523437-1.5 8.332031 2.023438 10.738281 3.523437 2.40625 8.332031 1.5 10.738281-2.023437 4.808594-7.039063 12.070313-11.78125 20.441406-13.363282 8.375-1.578125 16.863281.199219 23.902344 5.007813 2.136719 1.460937 4.746094 1.699219 7.003906.878906 1.46875-.535156 2.785157-1.515625 3.734375-2.902344 2.40625-3.523437 1.5-8.328125-2.023437-10.738281-10.445313-7.132812-23.046875-9.773438-35.476563-7.429688zm0 0"/><path d="m250.96875 176.746094c-4.210938-.699219-8.1875 2.160156-8.878906 6.371094-1.378906 8.410156-5.953125 15.777343-12.878906 20.746093-6.921876 4.972657-15.367188 6.945313-23.777344 5.566407-4.210938-.695313-8.183594 2.160156-8.875 6.371093-.691406 4.210938 2.160156 8.183594 6.371094 8.875 2.597656.429688 5.195312.640625 7.777343.640625 9.824219 0 19.378907-3.058594 27.515625-8.898437 10.277344-7.375 17.066406-18.3125 19.117188-30.796875.691406-4.210938-2.160156-8.183594-6.371094-8.875zm0 0"/><path d="m111.992188 299.265625c-3.460938 0-6.613282-2.34375-7.488282-5.855469-.953125-3.796875-5.5-23.332031-1.789062-34.835937 1.308594-4.058594 5.660156-6.292969 9.722656-4.980469 4.0625 1.308594 6.292969 5.664062 4.980469 9.726562-1.75 5.433594.160156 18.675782 2.074219 26.34375 1.035156 4.140626-1.480469 8.335938-5.621094 9.371094-.628906.15625-1.257813.230469-1.878906.230469zm0 0"/><path d="m174.148438 46.589844c-4.269532 0-7.726563-3.460938-7.726563-7.726563 0-13.171875 11.453125-24.777343 12.757813-26.054687 3.046874-2.988282 7.941406-2.9375 10.929687.109375 2.980469 3.042969 2.933594 7.925781-.101563 10.914062-2.117187 2.101563-8.132812 9.351563-8.132812 15.03125 0 4.265625-3.460938 7.726563-7.726562 7.726563zm0 0"/><path d="m200.335938 63.042969c-1.953126 0-3.910157-.738281-5.414063-2.214844-20.539063-20.203125-40.699219-.835937-41.546875 0-3.042969 2.992187-7.933594 2.953125-10.925781-.089844-2.992188-3.042969-2.953125-7.933593.089843-10.929687.320313-.3125 7.96875-7.753906 19.378907-11.492188 11.003906-3.605468 27.539062-4.539062 43.839843 11.492188 3.042969 2.996094 3.082032 7.886718.089844 10.929687-1.511718 1.535157-3.511718 2.304688-5.511718 2.304688zm0 0"/><path d="m483.140625 258.441406c-3.96875 0-7.335937-3.035156-7.6875-7.050781-.078125-.78125-1.863281-16.875-18.707031-31.519531-3.21875-2.800782-3.5625-7.679688-.761719-10.902344 2.800781-3.21875 7.679687-3.558594 10.902344-.757812 21.875 19.019531 23.890625 40.953124 23.964843 41.878906.34375 4.253906-2.824218 7.980468-7.078124 8.328125-.210938.015625-.421876.023437-.632813.023437zm0 0"/></g></svg>